/* XPM */
static char * CU_SeeMe_16x16_xpm[] = {
"16 16 3 1",
" 	c #000000",
".	c #FFCE9C",
"+	c #CE9C63",
"                ",
" .....    +++++ ",
" .....    +++++ ",
" .. ..    ++ ++ ",
" .. ..    ++ ++ ",
" .....    +++++ ",
" .....    +++++ ",
" .....    +++++ ",
" .....    +++++ ",
" .....    +++++ ",
" ...        +++ ",
" ....      ++++ ",
" ..          ++ ",
" ....      ++++ ",
" ....      ++++ ",
"                "};
